PathFileType	4	(X/Y/Z)	Patient4_TMGait_0pt4_03_left_22.trc.trc
DataRate	CameraRate	NumFrames	NumMarkers	Units	OrigDataRate	OrigDataStartFrame	OrigNumFrames
71.794871794872	71.794871794872	4	33	mm	71.794871794872	71	       141
Frame#	Time	Sacral			L.Shoulder			Chest			R.Shoulder			Neck			R.ASIS			L.ASIS			R.Thigh.Superior			R.Thigh.Lateral			R.Thigh.Inferior			R.Patella			L.Thigh.Superior			L.Thigh.Lateral			L.Thigh.Inferior			L.Patella			L.Shank.Superior			L.Shank.Lateral			L.Shank.Inferior			R.Shank.Superior			R.Shank.Lateral			R.Shank.Inferior			R.Heel			R.Midfoot.Superior			R.Midfoot.Lateral			R.Toe			L.Heel			L.Midfoot.Lateral			L.Midfoot.Superior			L.Toe			L.Elbow			L.Wrist			R.Elbow			R.Wrist			
		X1	Y1	Z1	X2	Y2	Z2	X3	Y3	Z3	X4	Y4	Z4	X5	Y5	Z5	X6	Y6	Z6	X7	Y7	Z7	X8	Y8	Z8	X9	Y9	Z9	X10	Y10	Z10	X11	Y11	Z11	X12	Y12	Z12	X13	Y13	Z13	X14	Y14	Z14	X15	Y15	Z15	X16	Y16	Z16	X17	Y17	Z17	X18	Y18	Z18	X19	Y19	Z19	X20	Y20	Z20	X21	Y21	Z21	X22	Y22	Z22	X23	Y23	Z23	X24	Y24	Z24	X25	Y25	Z25	X26	Y26	Z26	X27	Y27	Z27	X28	Y28	Z28	X29	Y29	Z29	X30	Y30	Z30	X31	Y31	Z31	X32	Y32	Z32	X33	Y33	Z33	

71	29.705000000000	853.549979075927	1016.952409729212	419.722010166734	1084.317686724634	1425.296831673365	235.441365037905	1164.137198660035	1359.170728640506	409.210720883753	1067.775928616170	1445.015407068121	570.662266356454	1051.953195213796	1495.469358333819	395.079860723164	1069.204087442063	948.427441395314	558.933432491287	1078.478755828633	956.837887017385	283.173302532362	1126.691972315359	758.538522417092	539.921206347124	1064.349214940827	646.294741217833	611.622140618534	1149.336923248894	597.387614743286	534.167454741476	1173.752532092671	519.754913091338	551.058094980147	1093.844046006583	737.468320758645	316.501453231644	991.517630701555	634.032355039006	249.326612133776	1061.239052728412	546.945013836400	314.835704394035	1051.122321938475	479.268584940386	322.500000674833	1019.319864678779	411.169905402118	314.516358337085	919.149355796555	304.438890589533	267.926319561637	962.230955944305	189.313095779299	336.880169231712	1159.677536439477	435.022816012723	564.030712100703	1109.138014448589	321.330222741639	628.858466655345	1181.593927844484	236.479279041470	579.618034071802	1095.280457579710	49.298063784301	553.072342033317	1257.681830776789	122.426567651426	593.752251166473	1178.892095269838	48.233087363686	627.446596332680	1381.768868294667	85.963077568748	620.568583311548	827.539358188559	39.250778720501	387.080182005813	895.436499766461	35.442359436187	301.576440637985	981.156089793290	95.736025834144	323.498581775559	1107.271616830282	40.639855346697	285.104407731391	1099.705694085873	1078.299879109335	107.234518051541	1267.327076752166	878.982945028564	150.578875434597	977.118346052503	1113.869585810868	701.344661333153	1041.379670196161	862.782457041467	739.962225588563	
72	29.718928571429	854.373894833851	1015.740290558086	421.711864844236	1082.919215170569	1425.039077676642	238.189071807582	1163.407486201191	1358.926530229259	411.658908690307	1066.966706833816	1444.034016368876	573.493453629527	1050.732426493532	1494.852113478529	397.867322789434	1070.211717475642	946.988028538074	560.452885645277	1079.427619565865	956.760847433262	284.760129497061	1126.584032040825	755.859482811563	541.218799827867	1062.070742633416	643.606774574815	611.372599743259	1147.100030914415	594.655526982713	534.187371311500	1170.111926312419	516.805142161230	550.206548608125	1093.711201597846	736.427898972141	317.459933173321	990.354040439063	633.600598398977	250.368586813817	1059.557042008084	545.871838512081	315.367666367668	1048.964715870826	478.179343727655	322.925491246530	1016.515462649403	410.368039227520	314.986705446106	915.284704151594	304.572629142871	268.342252828155	957.445268914125	188.903749128416	336.997860100012	1155.207533367404	431.583705210202	562.683779114835	1102.962963621009	318.271761902452	626.484545274983	1174.504842757980	232.930548016696	577.157997372060	1086.043988050725	47.876372604343	549.457037172462	1249.113692845559	118.014863735401	590.790735610707	1169.042269977198	45.803864050536	624.416152083591	1372.453307432360	79.719323389164	618.463523250434	821.959103667967	39.262716559674	387.069307436467	889.841903153955	35.434895606231	301.596226605226	975.595328693011	95.682479467036	323.509643223367	1101.672620702364	40.527345100481	285.075251300298	1098.267611905500	1078.108619555186	109.716093156097	1266.367515125043	879.015404104782	152.397654758308	977.708728894375	1112.251822862249	703.481824812467	1045.665805543301	861.847807210109	740.501715343535	
73	29.732857142857	855.335816627565	1014.433278719727	423.990581491269	1081.365201909181	1424.776404656498	241.149409396658	1162.677989941146	1358.716709959620	414.264104952121	1066.224754561792	1443.017243137822	576.561792877555	1049.452645146275	1494.212293048931	400.876627591274	1071.493481923567	945.543716253638	562.105164995650	1080.559398427790	956.772764497571	286.466963402181	1127.058141505841	753.400886932577	542.501152044293	1060.501290287154	641.061482211939	611.048113575452	1145.638740371339	592.230887712715	534.130368219022	1167.169040968005	513.853251064921	549.202372471327	1093.825121352476	735.385392939453	318.411289372989	989.360973614951	633.147537675561	251.555520892384	1058.137621505324	544.782179723777	315.949142376993	1047.122545100255	477.006891312665	323.420098898698	1013.923137680650	409.503461927528	315.546992475449	911.525695412516	304.741685736924	268.872718092059	952.734506412518	188.474522760093	337.160284743287	1151.103608480965	428.006408731255	561.183750772476	1096.700659080941	315.358213239728	624.145657209459	1166.715016861464	229.134115857166	574.572890125207	1075.074416786774	46.603668430387	546.115076491228	1239.064095751981	113.406254251668	587.700940449193	1157.580157461488	43.483063099210	621.559936458447	1361.675338770108	72.966421044786	616.134133248505	816.380722974281	39.282226171103	387.071644754038	884.252949718062	35.441797246229	301.631659257671	970.039091248202	95.636826619697	323.541870060919	1096.071487176370	40.405745697181	285.040283884123	1096.368425079769	1077.921758362278	112.298792702297	1264.872792228932	878.913122465919	153.913058476168	978.579383949923	1110.578620500423	705.948540869641	1050.621928414176	861.046024526475	741.370300168457	
74	29.746785714286	856.399364435886	1013.093619888472	426.510072616005	1079.720356303328	1424.538364321386	244.319049000724	1161.976209507012	1358.550402871988	417.031077257258	1065.573251001558	1441.989382084556	579.860862649311	1048.162903588610	1493.584235078836	404.103551607032	1073.004577421147	944.162101403305	563.884633237819	1081.808401466685	956.854916576179	288.289658330220	1128.005606291594	751.185352361556	543.756872890797	1059.595040017820	638.749725819272	610.734247469120	1144.828916331965	590.148699997279	534.005292371924	1164.831482946417	511.019728094244	548.075289497551	1094.142974068324	734.369072764859	319.355435214048	988.515634625004	632.690606076584	252.881416124321	1056.972432525138	543.702659820209	316.586855699788	1045.605003810885	475.766455779734	323.977156244368	1011.542458703304	408.597010277034	316.194820656508	907.868426785008	304.973071894634	269.524186750738	948.100916566254	188.050036708740	337.366145828461	1147.473177119442	424.485573257927	559.652298232894	1090.761387269614	312.682087745232	622.047263811993	1158.807512175434	225.329059760390	572.039249010103	1063.370192411963	45.442696113810	543.273215383961	1228.378810916520	108.984845543220	584.682506443133	1145.539274896370	41.403795462114	619.065375107575	1350.375378751030	66.386105331308	613.728042606460	810.804334437755	39.344777921774	387.086659704017	878.673199424211	35.478513934372	301.684056828526	964.497974455003	95.608003217367	323.591081237747	1090.470640100651	40.270747197721	284.997568830306	1093.995473140183	1077.763198210051	114.988701276434	1262.801506178548	878.682307413401	155.100234000732	979.734748734006	1108.891218831132	708.749786597192	1056.218723710683	860.427170264954	742.585553531035	
